<svg width="32" height="32" viewBox="0 0 32 32" fill="none" xmlns="http://www.w3.org/2000/svg">
<path d="M26.6501 27.9979C23.5304 27.9979 20.5959 27.4079 17.8465 26.228C15.0964 25.0481 12.6966 23.4335 10.6471 21.384C8.59693 19.3338 6.97708 16.934 5.78758 14.1847C4.59729 11.4345 4.00214 8.4896 4.00214 5.34988C3.98214 4.98991 4.10213 4.67474 4.36211 4.40436C4.62209 4.13479 4.94206 4 5.32202 4H10.0016C10.3616 4 10.6715 4.13479 10.9315 4.40436C11.1915 4.67474 11.3215 4.99991 11.3215 5.37988C11.3215 6.2598 11.3815 7.08972 11.5015 7.86965C11.6215 8.64958 11.8114 9.38952 12.0714 10.0895C12.1714 10.3094 12.1914 10.5342 12.1314 10.7638C12.0714 10.9942 11.9514 11.2094 11.7714 11.4093L8.77172 14.4091C9.63164 16.1689 10.8515 17.8388 12.4314 19.4186C14.0112 20.9985 15.7111 22.2584 17.5309 23.1983L20.5307 20.1986C20.7106 20.0186 20.9206 19.8986 21.1606 19.8386C21.4006 19.7786 21.6406 19.7986 21.8805 19.8986C22.6205 20.1386 23.3852 20.3233 24.1747 20.4529C24.9651 20.5833 25.7802 20.6485 26.6201 20.6485C27.0001 20.6485 27.3253 20.7885 27.5956 21.0685C27.8652 21.3485 28 21.6884 28 22.0884V26.678C28 27.0379 27.87 27.3479 27.61 27.6079C27.3501 27.8679 27.0301 27.9979 26.6501 27.9979ZM19.7507 24.3982C20.6507 24.7381 21.5906 25.0081 22.5705 25.2081C23.5504 25.4081 24.5603 25.5381 25.6002 25.5981V23.0183C24.9803 22.9783 24.3455 22.9083 23.696 22.8083C23.0456 22.7083 22.4005 22.5583 21.7606 22.3584L19.7507 24.3982ZM25.6002 15.9989C25.6002 13.3192 24.6703 11.0494 22.8105 9.18954C20.9506 7.3297 18.6808 6.39979 16.0011 6.39979V4C17.6609 4 19.2208 4.31477 20.6807 4.94432C22.1405 5.57466 23.4104 6.42978 24.4903 7.50969C25.5702 8.58959 26.4249 9.85948 27.0545 11.3193C27.6848 12.7792 28 14.3391 28 15.9989H25.6002ZM20.8006 15.9989C20.8006 14.679 20.3307 13.5491 19.3908 12.6092C18.4509 11.6693 17.321 11.1994 16.0011 11.1994V8.79957C18.0009 8.79957 19.7007 9.49951 21.1006 10.8994C22.5005 12.2993 23.2004 13.9991 23.2004 15.9989H20.8006ZM7.60182 12.1893L9.58164 10.1794C9.42166 9.5995 9.28647 8.98955 9.17608 8.34961C9.06649 7.70967 8.9917 7.05973 8.9517 6.39979H6.43193C6.47192 7.3597 6.59191 8.31961 6.79189 9.27953C6.99188 10.2394 7.26185 11.2094 7.60182 12.1893Z" fill="#404040"/>
</svg>
