<svg width="32" height="32" viewBox="0 0 32 32" fill="none" xmlns="http://www.w3.org/2000/svg">
<path d="M16.7059 27.28C16.2253 27.76 15.6546 28 14.9937 28C14.3329 28 13.7622 27.76 13.2816 27.28L4.69086 18.7C4.23029 18.24 4 17.675 4 17.005C4 16.335 4.23029 15.77 4.69086 15.31L15.2641 4.72C15.4844 4.5 15.7447 4.325 16.0451 4.195C16.3454 4.065 16.6658 4 17.0063 4H25.597C26.2578 4 26.8235 4.235 27.2941 4.705C27.7647 5.175 28 5.74 28 6.4V14.98C28 15.32 27.9349 15.64 27.8048 15.94C27.6746 16.24 27.4994 16.5 27.2791 16.72L16.7059 27.28ZM22.5932 11.2C23.0939 11.2 23.5194 11.025 23.8698 10.675C24.2203 10.325 24.3955 9.9 24.3955 9.4C24.3955 8.9 24.2203 8.475 23.8698 8.125C23.5194 7.775 23.0939 7.6 22.5932 7.6C22.0926 7.6 21.6671 7.775 21.3166 8.125C20.9662 8.475 20.791 8.9 20.791 9.4C20.791 9.9 20.9662 10.325 21.3166 10.675C21.6671 11.025 22.0926 11.2 22.5932 11.2ZM14.9937 25.6L25.597 14.98V6.4H17.0063L6.403 17.02L14.9937 25.6Z" fill="#404040"/>
</svg>
