<svg width="32" height="32" viewBox="0 0 32 32" fill="none" xmlns="http://www.w3.org/2000/svg">
<g clip-path="url(#clip0_7_217)">
<path d="M23.9999 8H21.3333C21.3333 5.05334 18.9466 2.66667 15.9999 2.66667C13.0533 2.66667 10.6666 5.05334 10.6666 8H7.99992C6.53325 8 5.33325 9.2 5.33325 10.6667V26.6667C5.33325 28.1333 6.53325 29.3333 7.99992 29.3333H23.9999C25.4666 29.3333 26.6666 28.1333 26.6666 26.6667V10.6667C26.6666 9.2 25.4666 8 23.9999 8ZM15.9999 5.33334C17.4666 5.33334 18.6666 6.53334 18.6666 8H13.3333C13.3333 6.53334 14.5333 5.33334 15.9999 5.33334ZM23.9999 26.6667H7.99992V10.6667H10.6666V13.3333C10.6666 14.0667 11.2666 14.6667 11.9999 14.6667C12.7333 14.6667 13.3333 14.0667 13.3333 13.3333V10.6667H18.6666V13.3333C18.6666 14.0667 19.2666 14.6667 19.9999 14.6667C20.7333 14.6667 21.3333 14.0667 21.3333 13.3333V10.6667H23.9999V26.6667Z" fill="#404040"/>
</g>
<defs>
<clipPath id="clip0_7_217">
<rect width="32" height="32" fill="white"/>
</clipPath>
</defs>
</svg>
