<svg width="32" height="32" viewBox="0 0 32 32" fill="none" xmlns="http://www.w3.org/2000/svg">
<path fill-rule="evenodd" clip-rule="evenodd" d="M13.7459 3.00003H18.2545C18.543 2.99984 18.7943 2.99968 19.0317 3.03759C19.9694 3.18732 20.7809 3.7722 21.2195 4.61445C21.3305 4.82764 21.4098 5.06615 21.5009 5.33992L21.6498 5.78645C21.675 5.86204 21.6822 5.88344 21.6882 5.90029C21.9218 6.54577 22.5271 6.98212 23.2133 6.99952C23.2314 6.99997 23.2534 7.00005 23.3335 7.00005H27.3335C27.8858 7.00005 28.3335 7.44776 28.3335 8.00005C28.3335 8.55233 27.8858 9.00005 27.3335 9.00005H4.66675C4.11447 9.00005 3.66675 8.55233 3.66675 8.00005C3.66675 7.44776 4.11447 7.00005 4.66675 7.00005H8.66685C8.74692 7.00005 8.76901 6.99997 8.78705 6.99952C9.47325 6.98212 10.0786 6.54581 10.3121 5.90032C10.3183 5.88335 10.3253 5.86241 10.3506 5.78645L10.4994 5.33995C10.5905 5.06619 10.6699 4.82764 10.7809 4.61445C11.2195 3.7722 12.0309 3.18732 12.9687 3.03759C13.206 2.99968 13.4574 2.99984 13.7459 3.00003ZM12.0109 7.00005C12.0796 6.86536 12.1405 6.72539 12.1929 6.58064C12.2087 6.53668 12.2243 6.48989 12.2444 6.42979L12.3774 6.03056C12.499 5.66588 12.527 5.59151 12.5548 5.53819C12.701 5.25743 12.9715 5.06248 13.284 5.01256C13.3434 5.00308 13.4227 5.00005 13.8071 5.00005H18.1931C18.5775 5.00005 18.657 5.00308 18.7163 5.01256C19.0289 5.06248 19.2994 5.25743 19.4457 5.53819C19.4734 5.59151 19.5014 5.66587 19.6229 6.03056L19.7559 6.42955L19.8075 6.58067C19.8599 6.7254 19.9207 6.86536 19.9894 7.00005H12.0109Z" fill="#404040"/>
<path d="M7.88674 11.2669C7.85001 10.7158 7.3735 10.2989 6.82244 10.3356C6.27138 10.3723 5.85444 10.8488 5.89117 11.3999L6.5091 20.6689C6.6231 22.3792 6.71518 23.7607 6.93114 24.8448C7.15568 25.9719 7.53757 26.9133 8.32636 27.6513C9.11516 28.3892 10.0799 28.7077 11.2194 28.8567C12.3154 29.0001 13.7 29.0001 15.4141 29H16.586C18.3001 29.0001 19.6846 29.0001 20.7808 28.8567C21.9202 28.7077 22.885 28.3892 23.6738 27.6513C24.4626 26.9133 24.8445 25.9719 25.069 24.8448C25.285 23.7608 25.377 22.3792 25.491 20.6689L26.109 11.3999C26.1457 10.8488 25.7288 10.3723 25.1777 10.3356C24.6266 10.2989 24.1501 10.7158 24.1134 11.2669L23.5001 20.4657C23.3804 22.2628 23.295 23.5132 23.1076 24.4541C22.9257 25.3667 22.672 25.8497 22.3074 26.1908C21.9429 26.5319 21.444 26.7529 20.5213 26.8736C19.5701 26.998 18.3168 27 16.5157 27H15.4845C13.6834 27 12.43 26.998 11.4788 26.8736C10.5562 26.7529 10.0573 26.5319 9.69273 26.1908C9.32818 25.8497 9.07439 25.3667 8.89259 24.4541C8.70518 23.5132 8.61981 22.2628 8.49999 20.4657L7.88674 11.2669Z" fill="#404040"/>
<path d="M12.5673 13.6717C13.1169 13.6167 13.607 14.0177 13.6619 14.5672L14.3286 21.2339C14.3835 21.7835 13.9826 22.2735 13.433 22.3284C12.8835 22.3833 12.3934 21.9824 12.3385 21.4329L11.6718 14.7663C11.6168 14.2167 12.0178 13.7267 12.5673 13.6717Z" fill="#404040"/>
<path d="M19.433 13.6717C19.9826 13.7267 20.3835 14.2167 20.3286 14.7663L19.6619 21.4329C19.607 21.9824 19.1168 22.3833 18.5674 22.3284C18.0178 22.2735 17.6168 21.7835 17.6718 21.2339L18.3384 14.5672C18.3934 14.0177 18.8835 13.6167 19.433 13.6717Z" fill="#404040"/>
</svg>
