<svg width="32" height="32" viewBox="0 0 32 32" fill="none" xmlns="http://www.w3.org/2000/svg">
<path fill-rule="evenodd" clip-rule="evenodd" d="M16 1.66667C12.5023 1.66667 9.66675 4.50221 9.66675 8C9.66675 11.4978 12.5023 14.3333 16 14.3333C19.4979 14.3333 22.3334 11.4978 22.3334 8C22.3334 4.50221 19.4979 1.66667 16 1.66667ZM11.6667 8C11.6667 5.60676 13.6068 3.66667 16 3.66667C18.3934 3.66667 20.3334 5.60676 20.3334 8C20.3334 10.3932 18.3934 12.3333 16 12.3333C13.6068 12.3333 11.6667 10.3932 11.6667 8Z" fill="#404040" stroke="#404040"/>
<path fill-rule="evenodd" clip-rule="evenodd" d="M16 16.3333C12.9154 16.3333 10.0733 17.0345 7.96736 18.2191C5.89274 19.3861 4.33342 21.1548 4.33342 23.3333L4.33334 23.4693C4.33184 25.0184 4.32994 26.9627 6.03532 28.3513C6.87461 29.0348 8.04873 29.5208 9.63504 29.842C11.2258 30.1639 13.2991 30.3333 16 30.3333C18.7011 30.3333 20.7744 30.1639 22.3651 29.842C23.9515 29.5208 25.1256 29.0348 25.9648 28.3513C27.6702 26.9627 27.6683 25.0184 27.6669 23.4693L27.6667 23.3333C27.6667 21.1548 26.1075 19.3861 24.0329 18.2191C21.9268 17.0345 19.0849 16.3333 16 16.3333ZM6.33342 23.3333C6.33342 22.1983 7.16193 20.9668 8.94789 19.9623C10.7025 18.9753 13.1938 18.3333 16 18.3333C18.8064 18.3333 21.2977 18.9753 23.0523 19.9623C24.8383 20.9668 25.6667 22.1983 25.6667 23.3333C25.6667 25.0771 25.613 26.0587 24.7019 26.8005C24.2079 27.2029 23.382 27.5956 21.9683 27.8817C20.5591 28.1669 18.6325 28.3333 16 28.3333C13.3678 28.3333 11.4411 28.1669 10.0318 27.8817C8.61813 27.5956 7.79225 27.2029 7.29821 26.8005C6.38718 26.0587 6.33342 25.0771 6.33342 23.3333Z" fill="#404040" stroke="#404040"/>
</svg>
